<?xml version="1.0" encoding="UTF-8" standalone="no"?>
<!DOCTYPE svg PUBLIC "-//W3C//DTD SVG 1.1//EN" "http://www.w3.org/Graphics/SVG/1.1/DTD/svg11.dtd">
<svg xmlns="http://www.w3.org/2000/svg" version="1.1" viewBox="0 0 286 194">
<g stroke-width="2.00" fill="none" stroke-linecap="butt">
<path stroke="#80cbba" vector-effect="non-scaling-stroke" d="
  M 223.56 107.70
  Q 208.93 98.86 193.99 90.41
  A 2.43 2.42 14.9 0 1 192.75 88.28
  Q 192.77 72.17 192.73 55.45
  C 192.73 54.03 192.30 51.95 191.19 51.30
  Q 173.47 41.00 155.70 30.79
  C 154.99 30.39 153.40 30.39 152.55 30.88
  Q 137.74 39.40 122.85 47.99
  A 2.13 2.11 44.8 0 1 120.72 47.99
  Q 105.99 39.52 90.76 30.73
  C 89.99 30.28 88.48 30.43 87.59 30.94
  Q 69.82 41.16 52.01 51.51
  A 2.06 2.04 75.0 0 0 51.00 53.28
  L 51.00 95.54
  A 2.01 2.00 15.0 0 0 52.01 97.28
  Q 66.68 105.73 81.33 114.11
  Q 83.26 115.21 83.25 117.00
  Q 83.23 133.63 83.27 150.25
  C 83.27 151.44 83.73 153.04 84.67 153.59
  Q 102.68 164.13 120.86 174.54
  A 1.91 1.90 -45.2 0 0 122.76 174.53
  L 153.09 157.03
  A 2.18 2.15 -44.9 0 1 155.24 157.02
  Q 169.96 165.43 184.55 173.95
  Q 186.56 175.13 188.02 174.28
  Q 205.92 163.91 223.92 153.57
  A 2.07 2.05 -12.7 0 0 224.95 151.96
  C 225.49 145.83 225.06 138.61 225.03 133.81
  Q 224.97 122.08 225.00 110.35
  C 225.00 109.19 224.50 108.27 223.56 107.70"
/>
<path stroke="#80cbba" vector-effect="non-scaling-stroke" d="
  M 108.22 56.40
  A 0.87 0.87 0.0 0 0 108.21 54.89
  L 89.77 44.39
  A 0.87 0.87 0.0 0 0 88.91 44.40
  L 70.48 54.89
  A 0.87 0.87 0.0 0 0 70.48 56.40
  L 88.95 67.05
  A 0.87 0.87 0.0 0 0 89.82 67.05
  L 108.22 56.40"
/>
<path stroke="#80cbba" vector-effect="non-scaling-stroke" d="
  M 88.02 80.50
  Q 76.03 73.90 64.15 67.00
  A 0.78 0.78 0.0 0 0 62.97 67.67
  Q 62.97 77.92 63.25 88.24
  Q 63.29 89.74 64.52 90.45
  Q 75.73 96.97 86.96 103.45
  C 88.11 104.11 89.70 104.63 90.76 104.02
  Q 121.35 86.44 151.86 68.74
  C 153.08 68.03 154.59 67.58 155.75 68.25
  Q 167.59 75.07 179.48 81.99
  A 0.68 0.68 0.0 0 0 180.50 81.40
  L 180.50 60.57
  A 2.43 2.42 15.0 0 0 179.28 58.47
  L 154.77 44.48
  A 1.11 1.09 44.5 0 0 153.68 44.48
  Q 122.49 62.30 91.43 80.17
  C 90.18 80.89 89.41 81.27 88.02 80.50"
/>
<path stroke="#80cbba" vector-effect="non-scaling-stroke" d="
  M 173.11 92.46
  Q 165.40 87.77 158.06 83.69
  C 155.60 82.33 154.67 81.19 151.79 82.84
  Q 143.68 87.48 135.33 92.39
  A 0.88 0.88 0.0 0 0 135.33 93.91
  L 153.20 104.22
  A 2.11 2.09 44.8 0 0 155.29 104.22
  L 173.10 93.90
  A 0.84 0.84 0.0 0 0 173.11 92.46"
/>
<path stroke="#80cbba" vector-effect="non-scaling-stroke" d="
  M 140.54 111.07
  L 122.89 100.82
  A 2.25 2.23 44.8 0 0 120.66 100.82
  L 102.91 111.14
  A 0.86 0.86 0.0 0 0 102.91 112.62
  L 120.47 122.83
  A 2.58 2.58 0.0 0 0 123.07 122.83
  L 140.54 112.69
  A 0.94 0.94 0.0 0 0 140.54 111.07"
/>
<path stroke="#80cbba" vector-effect="non-scaling-stroke" d="
  M 120.78 137.05
  L 96.91 123.24
  A 0.94 0.94 0.0 0 0 95.50 124.06
  L 95.50 144.43
  A 2.38 2.38 0.0 0 0 96.67 146.48
  Q 108.11 153.30 120.07 160.08
  C 120.95 160.58 122.49 160.70 123.25 160.26
  Q 154.62 142.16 185.90 124.06
  A 1.52 1.50 44.7 0 1 187.43 124.06
  L 211.52 138.00
  A 0.98 0.98 0.0 0 0 212.99 137.16
  Q 213.06 127.10 212.76 117.32
  Q 212.70 115.27 211.16 114.36
  Q 205.63 111.08 188.81 101.43
  C 187.77 100.83 186.19 100.43 185.24 100.98
  Q 154.02 118.99 122.75 137.05
  A 1.98 1.96 44.7 0 1 120.78 137.05"
/>
<path stroke="#80cbba" vector-effect="non-scaling-stroke" d="
  M 205.66 148.77
  C 202.53 146.91 187.57 137.16 185.25 138.49
  Q 176.35 143.54 167.81 148.65
  A 0.84 0.84 0.0 0 0 167.80 150.09
  C 170.78 151.88 185.69 161.60 188.01 160.28
  Q 196.52 155.43 204.88 150.34
  Q 205.53 149.95 205.82 149.53
  A 0.53 0.53 0.0 0 0 205.66 148.77"
/>
</g>
<path fill="#ffffff" d="
  M 0.00 0.00
  L 286.00 0.00
  L 286.00 194.00
  L 0.00 194.00
  L 0.00 0.00
  Z
  M 223.56 107.70
  Q 208.93 98.86 193.99 90.41
  A 2.43 2.42 14.9 0 1 192.75 88.28
  Q 192.77 72.17 192.73 55.45
  C 192.73 54.03 192.30 51.95 191.19 51.30
  Q 173.47 41.00 155.70 30.79
  C 154.99 30.39 153.40 30.39 152.55 30.88
  Q 137.74 39.40 122.85 47.99
  A 2.13 2.11 44.8 0 1 120.72 47.99
  Q 105.99 39.52 90.76 30.73
  C 89.99 30.28 88.48 30.43 87.59 30.94
  Q 69.82 41.16 52.01 51.51
  A 2.06 2.04 75.0 0 0 51.00 53.28
  L 51.00 95.54
  A 2.01 2.00 15.0 0 0 52.01 97.28
  Q 66.68 105.73 81.33 114.11
  Q 83.26 115.21 83.25 117.00
  Q 83.23 133.63 83.27 150.25
  C 83.27 151.44 83.73 153.04 84.67 153.59
  Q 102.68 164.13 120.86 174.54
  A 1.91 1.90 -45.2 0 0 122.76 174.53
  L 153.09 157.03
  A 2.18 2.15 -44.9 0 1 155.24 157.02
  Q 169.96 165.43 184.55 173.95
  Q 186.56 175.13 188.02 174.28
  Q 205.92 163.91 223.92 153.57
  A 2.07 2.05 -12.7 0 0 224.95 151.96
  C 225.49 145.83 225.06 138.61 225.03 133.81
  Q 224.97 122.08 225.00 110.35
  C 225.00 109.19 224.50 108.27 223.56 107.70
  Z"
/>
<path fill="#009775" d="
  M 223.56 107.70
  C 224.50 108.27 225.00 109.19 225.00 110.35
  Q 224.97 122.08 225.03 133.81
  C 225.06 138.61 225.49 145.83 224.95 151.96
  A 2.07 2.05 -12.7 0 1 223.92 153.57
  Q 205.92 163.91 188.02 174.28
  Q 186.56 175.13 184.55 173.95
  Q 169.96 165.43 155.24 157.02
  A 2.18 2.15 -44.9 0 0 153.09 157.03
  L 122.76 174.53
  A 1.91 1.90 -45.2 0 1 120.86 174.54
  Q 102.68 164.13 84.67 153.59
  C 83.73 153.04 83.27 151.44 83.27 150.25
  Q 83.23 133.63 83.25 117.00
  Q 83.26 115.21 81.33 114.11
  Q 66.68 105.73 52.01 97.28
  A 2.01 2.00 15.0 0 1 51.00 95.54
  L 51.00 53.28
  A 2.06 2.04 75.0 0 1 52.01 51.51
  Q 69.82 41.16 87.59 30.94
  C 88.48 30.43 89.99 30.28 90.76 30.73
  Q 105.99 39.52 120.72 47.99
  A 2.13 2.11 44.8 0 0 122.85 47.99
  Q 137.74 39.40 152.55 30.88
  C 153.40 30.39 154.99 30.39 155.70 30.79
  Q 173.47 41.00 191.19 51.30
  C 192.30 51.95 192.73 54.03 192.73 55.45
  Q 192.77 72.17 192.75 88.28
  A 2.43 2.42 14.9 0 0 193.99 90.41
  Q 208.93 98.86 223.56 107.70
  Z
  M 108.22 56.40
  A 0.87 0.87 0.0 0 0 108.21 54.89
  L 89.77 44.39
  A 0.87 0.87 0.0 0 0 88.91 44.40
  L 70.48 54.89
  A 0.87 0.87 0.0 0 0 70.48 56.40
  L 88.95 67.05
  A 0.87 0.87 0.0 0 0 89.82 67.05
  L 108.22 56.40
  Z
  M 88.02 80.50
  Q 76.03 73.90 64.15 67.00
  A 0.78 0.78 0.0 0 0 62.97 67.67
  Q 62.97 77.92 63.25 88.24
  Q 63.29 89.74 64.52 90.45
  Q 75.73 96.97 86.96 103.45
  C 88.11 104.11 89.70 104.63 90.76 104.02
  Q 121.35 86.44 151.86 68.74
  C 153.08 68.03 154.59 67.58 155.75 68.25
  Q 167.59 75.07 179.48 81.99
  A 0.68 0.68 0.0 0 0 180.50 81.40
  L 180.50 60.57
  A 2.43 2.42 15.0 0 0 179.28 58.47
  L 154.77 44.48
  A 1.11 1.09 44.5 0 0 153.68 44.48
  Q 122.49 62.30 91.43 80.17
  C 90.18 80.89 89.41 81.27 88.02 80.50
  Z
  M 173.11 92.46
  Q 165.40 87.77 158.06 83.69
  C 155.60 82.33 154.67 81.19 151.79 82.84
  Q 143.68 87.48 135.33 92.39
  A 0.88 0.88 0.0 0 0 135.33 93.91
  L 153.20 104.22
  A 2.11 2.09 44.8 0 0 155.29 104.22
  L 173.10 93.90
  A 0.84 0.84 0.0 0 0 173.11 92.46
  Z
  M 140.54 111.07
  L 122.89 100.82
  A 2.25 2.23 44.8 0 0 120.66 100.82
  L 102.91 111.14
  A 0.86 0.86 0.0 0 0 102.91 112.62
  L 120.47 122.83
  A 2.58 2.58 0.0 0 0 123.07 122.83
  L 140.54 112.69
  A 0.94 0.94 0.0 0 0 140.54 111.07
  Z
  M 120.78 137.05
  L 96.91 123.24
  A 0.94 0.94 0.0 0 0 95.50 124.06
  L 95.50 144.43
  A 2.38 2.38 0.0 0 0 96.67 146.48
  Q 108.11 153.30 120.07 160.08
  C 120.95 160.58 122.49 160.70 123.25 160.26
  Q 154.62 142.16 185.90 124.06
  A 1.52 1.50 44.7 0 1 187.43 124.06
  L 211.52 138.00
  A 0.98 0.98 0.0 0 0 212.99 137.16
  Q 213.06 127.10 212.76 117.32
  Q 212.70 115.27 211.16 114.36
  Q 205.63 111.08 188.81 101.43
  C 187.77 100.83 186.19 100.43 185.24 100.98
  Q 154.02 118.99 122.75 137.05
  A 1.98 1.96 44.7 0 1 120.78 137.05
  Z
  M 205.66 148.77
  C 202.53 146.91 187.57 137.16 185.25 138.49
  Q 176.35 143.54 167.81 148.65
  A 0.84 0.84 0.0 0 0 167.80 150.09
  C 170.78 151.88 185.69 161.60 188.01 160.28
  Q 196.52 155.43 204.88 150.34
  Q 205.53 149.95 205.82 149.53
  A 0.53 0.53 0.0 0 0 205.66 148.77
  Z"
/>
<path fill="#ffffff" d="
  M 108.22 56.40
  L 89.82 67.05
  A 0.87 0.87 0.0 0 1 88.95 67.05
  L 70.48 56.40
  A 0.87 0.87 0.0 0 1 70.48 54.89
  L 88.91 44.40
  A 0.87 0.87 0.0 0 1 89.77 44.39
  L 108.21 54.89
  A 0.87 0.87 0.0 0 1 108.22 56.40
  Z"
/>
<path fill="#ffffff" d="
  M 88.02 80.50
  C 89.41 81.27 90.18 80.89 91.43 80.17
  Q 122.49 62.30 153.68 44.48
  A 1.11 1.09 44.5 0 1 154.77 44.48
  L 179.28 58.47
  A 2.43 2.42 15.0 0 1 180.50 60.57
  L 180.50 81.40
  A 0.68 0.68 0.0 0 1 179.48 81.99
  Q 167.59 75.07 155.75 68.25
  C 154.59 67.58 153.08 68.03 151.86 68.74
  Q 121.35 86.44 90.76 104.02
  C 89.70 104.63 88.11 104.11 86.96 103.45
  Q 75.73 96.97 64.52 90.45
  Q 63.29 89.74 63.25 88.24
  Q 62.97 77.92 62.97 67.67
  A 0.78 0.78 0.0 0 1 64.15 67.00
  Q 76.03 73.90 88.02 80.50
  Z"
/>
<path fill="#ffffff" d="
  M 173.11 92.46
  A 0.84 0.84 0.0 0 1 173.10 93.90
  L 155.29 104.22
  A 2.11 2.09 44.8 0 1 153.20 104.22
  L 135.33 93.91
  A 0.88 0.88 0.0 0 1 135.33 92.39
  Q 143.68 87.48 151.79 82.84
  C 154.67 81.19 155.60 82.33 158.06 83.69
  Q 165.40 87.77 173.11 92.46
  Z"
/>
<path fill="#ffffff" d="
  M 140.54 111.07
  A 0.94 0.94 0.0 0 1 140.54 112.69
  L 123.07 122.83
  A 2.58 2.58 0.0 0 1 120.47 122.83
  L 102.91 112.62
  A 0.86 0.86 0.0 0 1 102.91 111.14
  L 120.66 100.82
  A 2.25 2.23 44.8 0 1 122.89 100.82
  L 140.54 111.07
  Z"
/>
<path fill="#ffffff" d="
  M 120.78 137.05
  A 1.98 1.96 44.7 0 0 122.75 137.05
  Q 154.02 118.99 185.24 100.98
  C 186.19 100.43 187.77 100.83 188.81 101.43
  Q 205.63 111.08 211.16 114.36
  Q 212.70 115.27 212.76 117.32
  Q 213.06 127.10 212.99 137.16
  A 0.98 0.98 0.0 0 1 211.52 138.00
  L 187.43 124.06
  A 1.52 1.50 44.7 0 0 185.90 124.06
  Q 154.62 142.16 123.25 160.26
  C 122.49 160.70 120.95 160.58 120.07 160.08
  Q 108.11 153.30 96.67 146.48
  A 2.38 2.38 0.0 0 1 95.50 144.43
  L 95.50 124.06
  A 0.94 0.94 0.0 0 1 96.91 123.24
  L 120.78 137.05
  Z"
/>
<path fill="#ffffff" d="
  M 205.66 148.77
  A 0.53 0.53 0.0 0 1 205.82 149.53
  Q 205.53 149.95 204.88 150.34
  Q 196.52 155.43 188.01 160.28
  C 185.69 161.60 170.78 151.88 167.80 150.09
  A 0.84 0.84 0.0 0 1 167.81 148.65
  Q 176.35 143.54 185.25 138.49
  C 187.57 137.16 202.53 146.91 205.66 148.77
  Z"
/>
</svg>
